# xmcd
#
# Track frame offsets:
#	150
#	20855
#	38405
#	60017
#	77940
#	106295
#	121862
#	143142
#	163902
#	180545
#	201550
#	226880
#	252095
#	273940
#	293412
#	309170
#	325797
#
# Disc length: 4620 seconds
#
# Revision: 1
# Processed by: cddbd v1.5.1PL0 Copyright (c) Steve Scherf et al.
# Submitted via: CDex 1.50Beta5
#
DISCID=dd120a11
DTITLE=原田真二 - 原田真二GOLDEN☆BEST Legendary Hits 80’s
DYEAR=2003
DGENRE=
TTITLE0=見つめてCARRY ON
TTITLE1=永遠を感じた夜
TTITLE2=Teardrops
TTITLE3=雨のハイウェイ
TTITLE4=伝説のKISS
TTITLE5=Modern Lovers
TTITLE6=Let Me Hold You Again Tonight
TTITLE7=LOVE OPERATOR
TTITLE8=Spring Shower
TTITLE9=Happy End
TTITLE10=Breathe
TTITLE11=EVERY NIGHT
TTITLE12=Today’s Love
TTITLE13=Modern Vision
TTITLE14=愛してかんからりん
TTITLE15=Save Our Soul
TTITLE16=WRONG WAY
EXTD=
EXTT0=
EXTT1=
EXTT2=
EXTT3=
EXTT4=
EXTT5=
EXTT6=
EXTT7=
EXTT8=
EXTT9=
EXTT10=
EXTT11=
EXTT12=
EXTT13=
EXTT14=
EXTT15=
EXTT16=
PLAYORDER=
